Coordinates
version=1
nRows=14
nColumns=33
inDegrees=yes

Units are S.I. units (second, meters, Newtons, ...)
Angles are in degrees.

endheader
time	ground_thorax_rot_x	ground_thorax_rot_y	ground_thorax_rot_z	ground_thorax_tx	ground_thorax_ty	ground_thorax_tz	clav_prot_r	clav_elev_r	scapula_abduction_r	scapula_elevation_r	scapula_upward_rot_r	scapula_winging_r	shoulder_elv_r	plane_of_elev_r	axial_rot_r	elbow_flexion_r	pro_sup_r	wrist_flex_r	wrist_dev_r	clav_prot_l	clav_elev_l	scapula_abduction_l	scapula_elevation_l	scapula_upward_rot_l	scapula_winging_l	shoulder_elv_l	plane_of_elev_l	axial_rot_l	elbow_flexion_l	pro_sup_l	wrist_flex_l	wrist_dev_l
      5.16000000	     -0.40599975	      1.03833768	     13.23590866	     -0.12028081	      1.03091797	      0.00947735	     10.39362017	     -9.55685096	     17.94822476	     -2.29594545	     -0.43035147	     -4.11054729	    -58.21277959	    -72.04131314	     81.29171770	    -54.99986303	   -140.30195048	     43.65284517	    -24.99999983	      8.03149869	     -1.12585206	     -8.96740829	    -21.30346675	    -36.13845526	     -2.91130015	     54.93369878	    -38.76469866	      1.68494916	     55.21786001	     21.32702515	     -3.64796877	    -24.99999983
      5.17000000	     -1.00935726	      1.60158042	     12.98139613	     -0.11963498	      1.03080787	      0.00948665	      9.19984394	     -9.84967148	     15.93827040	     -2.59199727	     -0.38165755	     -3.18469000	    -57.52269709	    -72.35036380	     82.44006686	    -54.77156774	   -140.88549916	     47.75001345	    -24.99999983	      8.48653607	      0.06172694	     -9.58362780	    -22.29776124	    -35.78185259	     -2.75854970	     54.58308462	    -37.76238009	      1.44429468	     55.16232534	     20.49868988	     -4.01991960	    -24.99999983
      5.18000000	     -1.02069293	      1.57185021	     12.94588824	     -0.11988833	      1.03093814	      0.00945435	      9.22893429	     -9.87695525	     15.96144195	     -2.59101407	     -0.44206189	     -3.18201811	    -57.67111733	    -72.51029731	     82.67495889	    -55.25925043	   -140.80050846	     47.95332907	    -24.98078621	      8.57486628	      0.09545456	     -9.75595226	    -22.36651146	    -35.86560149	     -2.70816483	     54.53429488	    -37.92649169	      1.24440146	     55.72473421	     20.54024355	     -4.06752266	    -24.99999983
      5.19000000	     -1.00583180	      1.56479974	     13.00565318	     -0.11992679	      1.03160995	      0.00945911	      9.21572435	     -9.91059218	     15.95267163	     -2.63460824	     -0.41215614	     -3.16286831	    -57.70026131	    -72.44622768	     82.73036499	    -55.36443549	   -140.78116919	     47.98851549	    -24.97446285	      8.56207060	      0.06837961	     -9.74635998	    -22.36563501	    -35.91608907	     -2.71748583	     54.46329451	    -37.92218468	      1.18805967	     55.78915222	     20.55332756	     -4.06759993	    -24.99999983
      5.20000000	     -0.94689464	      1.58339492	     13.15267062	     -0.11997780	      1.03064484	      0.00961947	      9.17848894	     -9.69414323	     15.75921305	     -2.32585984	     -0.67604057	     -3.15914797	    -57.85917374	    -72.66835167	     82.88158696	    -56.41045077	   -140.29959623	     48.65084656	    -24.90908495	      8.67605319	      0.22032689	     -9.95346755	    -22.55758600	    -36.01404672	     -2.67652028	     54.44170235	    -38.24640042	      0.74819355	     56.77197548	     20.89882230	     -4.16101608	    -24.99999983
      5.21000000	     -1.00611646	      1.73948835	     13.32457184	     -0.12007638	      1.03106401	      0.00983273	      8.94789537	     -9.93017827	     15.21066640	     -2.39397262	     -1.03118876	     -2.83586535	    -57.53127370	    -72.88512325	     82.95955368	    -56.74458242	   -138.59972399	     50.10325673	    -24.68900937	      8.86705841	      0.10497855	    -10.33212917	    -22.46752300	    -36.09003709	     -2.51664994	     54.62594763	    -38.45662234	      0.30999502	     57.11065275	     22.56002164	     -4.37993949	    -24.99999983
      5.22000000	     -1.05364387	      1.70518727	     13.19597404	     -0.12017478	      1.03119366	      0.00992558	      8.93675417	    -10.00292610	     15.27275165	     -2.53129232	     -0.86334298	     -2.84134827	    -57.60061530	    -72.82788865	     83.13359895	    -57.21332451	   -138.54187178	     50.22565727	    -24.71009383	      8.90999321	      0.12566751	    -10.40109543	    -22.46973902	    -36.05745686	     -2.48740797	     54.63430580	    -38.36798465	      0.22634162	     57.36684155	     22.63542940	     -4.40086604	    -24.99999983
      5.23000000	     -1.06393284	      1.70549748	     13.13985615	     -0.12026666	      1.03120312	      0.00995188	      8.94601475	    -10.05758225	     15.33193127	     -2.62002518	     -0.77036753	     -2.84681726	    -57.69344584	    -72.84789105	     83.30684951	    -57.64044861	   -138.45005750	     50.36483601	    -24.72339043	      8.95888060	      0.15584254	    -10.48098930	    -22.48410443	    -36.02803982	     -2.45283228	     54.63333804	    -38.25914538	      0.04275018	     57.69152449	     22.75910769	     -4.41373324	    -24.99999983
      5.24000000	     -1.07635047	      1.67803487	     13.16131457	     -0.12036520	      1.03114794	      0.01004725	      8.93932662	    -10.09115353	     15.36130478	     -2.68707398	     -0.68580101	     -2.84781198	    -57.74456889	    -72.83493837	     83.43825455	    -58.07330301	   -138.35016556	     50.51195878	    -24.74589353	      9.00818378	      0.18970267	    -10.56458528	    -22.50903321	    -36.01702769	     -2.41989820	     54.64462957	    -38.18574532	     -0.17954126	     57.96323617	     22.93096842	     -4.41734757	    -24.99999983
      5.25000000	     -1.07528026	      1.68923632	     13.17599182	     -0.12046335	      1.03099034	      0.01011746	      8.94653219	    -10.13231298	     15.39562887	     -2.74264839	     -0.64148780	     -2.84886869	    -57.77621743	    -72.83792713	     83.56021743	    -58.50226701	   -138.23397430	     50.67043161	    -24.78181340	      9.06732595	      0.21669857	    -10.66387352	    -22.52128156	    -35.99286831	     -2.37926232	     54.68091531	    -38.07210269	     -0.46464084	     58.25085616	     23.16238944	     -4.41576860	    -24.99999983
      5.26000000	     -1.06168841	      1.69243616	     13.33029201	     -0.12042126	      1.03111881	      0.01017153	      8.93606355	    -10.17574487	     15.40508948	     -2.80672928	     -0.58362742	     -2.83623864	    -57.77103664	    -72.79446593	     83.58803899	    -58.57299287	   -138.22800675	     50.68459912	    -24.78300270	      9.06099427	      0.18425569	    -10.65368753	    -22.48220300	    -35.97783518	     -2.37477180	     54.66657009	    -37.99678129	     -0.49413061	     58.30092575	     23.17493218	     -4.41617418	    -24.99999983
      5.27000000	     -1.28009666	      1.90562703	     13.29457966	     -0.12014588	      1.03099733	      0.01040756	      8.54358519	    -10.60775286	     14.53674285	     -3.01128765	     -1.04876505	     -2.30631444	    -56.78519463	    -72.86372490	     84.01062797	    -59.10611637	   -136.72935741	     51.71039155	    -24.99999983	      9.11083790	      0.24450081	    -10.77993021	    -22.64600020	    -36.19930377	     -2.37356069	     55.53562678	    -37.78675429	     -1.14814126	     58.89543228	     26.76402592	     -4.67526767	    -24.99999983
      5.28000000	     -1.27340699	      1.89023820	     13.42538601	     -0.12007921	      1.03092981	      0.01044067	      8.53424812	    -10.64301714	     14.55028916	     -3.06963700	     -0.98659864	     -2.29940687	    -56.76772517	    -72.84118712	     84.02419635	    -59.17038720	   -136.73276366	     51.71807368	    -24.99999983	      9.11106138	      0.21808166	    -10.78060943	    -22.60994136	    -36.18003455	     -2.36624888	     55.52633332	    -37.71957686	     -1.17336092	     58.92694683	     26.76568812	     -4.67625183	    -24.99999983
      5.29000000	     -1.21245184	      1.84259437	     13.29080684	     -0.12029808	      1.03062024	      0.01052996	      8.58003611	    -10.72988807	     14.66509133	     -3.17881974	     -0.91482302	     -2.31353241	    -56.69865318	    -72.89934723	     84.11290936	    -59.67206009	   -136.74990552	     51.82470590	    -24.99999983	      9.21406658	      0.17018608	    -10.96405350	    -22.52964781	    -36.12568696	     -2.27165059	     55.51275560	    -37.49692293	     -1.55979351	     58.92876428	     26.85359635	     -4.67064587	    -24.99999983
